<?xml version="1.0" encoding="iso-8859-1"?>
<!-- Generator: Adobe Illustrator 19.0.0, SVG Export Plug-In . SVG Version: 6.00 Build 0)  -->
<svg version="1.1" id="Capa_1" xmlns="http://www.w3.org/2000/svg" xmlns:xlink="http://www.w3.org/1999/xlink" x="0px" y="0px"
	 viewBox="0 0 512 512" style="enable-background:new 0 0 512 512;" xml:space="preserve">
<circle style="fill:#FF3636;" cx="256" cy="256" r="256"/>
<path style="fill:#C10000;" d="M506.643,308.31L329.824,131.491l-40.041-23.519l-12.249-12.231L119.185,293.837l27.779,27.789
	l32.698,72.006l115.404,115.404C400.717,492.86,485.093,412.094,506.643,308.31z"/>
<path style="fill:#F6A96C;" d="M365.248,304.996h-19.863v-79.453h19.863c21.91,0,39.727,17.817,39.727,39.727
	S387.158,304.996,365.248,304.996z"/>
<path style="fill:#FFBD86;" d="M166.615,304.996h-19.863c-21.91,0-39.727-17.817-39.727-39.727s17.817-39.727,39.727-39.727h19.863
	V304.996z"/>
<path style="fill:#FED2A4;" d="M365.248,205.68v109.248c0,60.185-49.062,110.572-109.248,110.572s-109.248-50.387-109.248-110.572
	V205.68l24.829-19.863h179.961L365.248,205.68z"/>
<path style="fill:#FFBD86;" d="M365.248,205.68v109.248c0,60.185-49.062,110.572-109.248,110.572V185.816h95.542L365.248,205.68z"/>
<path style="fill:#FF641A;" d="M298.904,339.757c-8.74,15.295-25.226,24.829-42.904,24.829s-34.164-9.534-42.904-24.829
	l17.082-9.932c5.362,9.138,15.294,14.897,25.822,14.897c10.528,0,20.46-5.76,25.822-14.897L298.904,339.757z"/>
<rect x="285.8" y="285.13" style="fill:#444444;" width="19.863" height="19.863"/>
<rect x="206.34" y="285.13" style="fill:#5A5A5A;" width="19.863" height="19.863"/>
<path style="fill:#FF4B00;" d="M281.822,329.825l17.082,9.932c-8.74,15.295-25.226,24.829-42.904,24.829v-19.863
	C266.528,344.723,276.46,338.963,281.822,329.825z"/>
<path style="fill:#5A5A5A;" d="M365.248,205.68c0,16.486-6.754,31.383-17.48,42.11c-10.726,10.726-25.623,17.48-42.11,17.48h-99.316
	c-32.973,0-59.59-26.617-59.59-59.59l23.637-19.863H350.35L365.248,205.68z"/>
<path style="fill:#00CC71;" d="M365.248,205.68H146.752c4.568-44.296,38.535-92.96,81.043-98.721
	C231.569,95.041,242.891,86.5,256,86.5c13.109,0,24.431,8.541,28.206,20.459C326.713,112.72,360.68,161.384,365.248,205.68z"/>
<path style="fill:#444444;" d="M365.248,205.68c0,16.486-6.754,31.383-17.48,42.11c-10.726,10.726-25.623,17.48-42.11,17.48H256
	v-79.453h94.351L365.248,205.68z"/>
<path style="fill:#00AB5E;" d="M365.248,205.68H256V86.5c13.109,0,24.431,8.541,28.206,20.459
	C326.713,112.72,360.68,161.384,365.248,205.68z"/>
<g>
</g>
<g>
</g>
<g>
</g>
<g>
</g>
<g>
</g>
<g>
</g>
<g>
</g>
<g>
</g>
<g>
</g>
<g>
</g>
<g>
</g>
<g>
</g>
<g>
</g>
<g>
</g>
<g>
</g>
</svg>
